<svg width="124" height="56" viewBox="0 0 124 56" fill="none" xmlns="http://www.w3.org/2000/svg">
<path d="M34.1082 17.9437C33.7683 14.1438 32.3322 10.5244 29.9745 7.52502C27.6167 4.52569 24.4388 2.27552 20.8266 1.04783C17.2144 -0.179859 13.3235 -0.33224 9.62639 0.609196C5.92928 1.55063 2.58508 3.54537 0 6.35113L3.16281 11.8275C4.75336 9.53929 6.99983 7.78662 9.60622 6.80043C12.2126 5.81424 15.0566 5.64081 17.7635 6.30298C20.4704 6.96516 22.9132 8.43187 24.77 10.5099C26.6268 12.5879 27.8106 15.1796 28.1652 17.9437C28.2387 18.5251 28.2756 19.1106 28.2757 19.6966C28.2766 20.666 28.1749 21.6328 27.9723 22.5807H8.32753C8.50268 23.5338 8.89795 24.4327 9.48184 25.206C10.1473 26.0928 11.0353 26.788 12.056 27.2211C13.3444 27.7644 14.7775 27.8612 16.1272 27.496C17.477 27.1309 18.6658 26.3248 19.5046 25.206H27.1362C26.1416 27.4868 24.5484 29.4561 22.5255 30.905C20.5027 32.3539 18.1254 33.2286 15.6459 33.4362L18.8037 38.9159C22.2397 38.1415 25.4057 36.4614 27.9729 34.0499C30.5401 31.6384 32.4149 28.5836 33.4025 25.2027C33.872 23.5899 34.132 21.9233 34.1759 20.2441V19.1425C34.166 18.7413 34.1434 18.3417 34.1082 17.9437Z" fill="#1C4586"/>
<path d="M20.7493 17.6815H8.22507C8.19453 16.84 8.3339 16.001 8.63485 15.2146C8.9358 14.4282 9.39215 13.7105 9.97666 13.1044C10.5612 12.4983 11.2618 12.0162 12.0368 11.687C12.8118 11.3577 13.6452 11.188 14.4872 11.188C15.3292 11.188 16.1626 11.3577 16.9376 11.687C17.7126 12.0162 18.4132 12.4983 18.9978 13.1044C19.5823 13.7105 20.0386 14.4282 20.3396 15.2146C20.6405 16.001 20.7799 16.84 20.7493 17.6815V17.6815Z" fill="#73C2B9"/>
<path d="M36.5488 38.3884V1.36963H44.0848V32.1007H62.8226V38.3884H36.5488Z" fill="#1C4586"/>
<path d="M68.1438 7.68336V1.06421H75.2989V7.68336H68.1438ZM68.1438 38.388V11.3442H75.2989V38.388H68.1438Z" fill="#1C4586"/>
<path d="M79.499 11.3494H83.4715V9.31282C83.4715 7.03938 83.7134 5.34199 84.1971 4.22066C84.6808 3.09933 85.5718 2.18687 86.8701 1.48329C88.1673 0.779713 89.8098 0.427373 91.7974 0.426274C93.8267 0.424941 95.8442 0.734137 97.78 1.34313L96.812 6.33305C95.737 6.07215 94.635 5.93876 93.5288 5.93564C92.4933 5.93564 91.7507 6.17749 91.301 6.6612C90.8514 7.14491 90.626 8.07386 90.6249 9.44804V11.3494H95.9727V16.984H90.6249V38.3883H83.4715V16.984H79.499V11.3494Z" fill="#1C4586"/>
<path d="M115.654 29.7837L122.782 30.9793C121.866 33.5924 120.418 35.5828 118.441 36.9504C116.463 38.318 113.989 39.0012 111.02 39.0001C106.319 39.0001 102.84 37.4638 100.582 34.3911C98.7986 31.9308 97.9076 28.8246 97.9087 25.0725C97.9087 20.5916 99.08 17.0825 101.423 14.5452C103.765 12.0079 106.727 10.7393 110.308 10.7393C114.331 10.7393 117.506 12.0673 119.831 14.7233C122.156 17.3793 123.267 21.4469 123.165 26.926H105.24C105.291 29.0488 105.868 30.6978 106.972 31.873C107.492 32.4457 108.13 32.9001 108.841 33.2053C109.552 33.5106 110.32 33.6596 111.094 33.6424C112.213 33.6424 113.155 33.3374 113.921 32.7272C114.686 32.1171 115.263 31.1359 115.654 29.7837ZM116.061 22.5528C116.009 20.4816 115.475 18.9074 114.457 17.83C113.967 17.312 113.376 16.901 112.72 16.6228C112.064 16.3447 111.357 16.2054 110.644 16.2137C109.932 16.2221 109.229 16.3779 108.579 16.6714C107.93 16.9649 107.348 17.3897 106.871 17.9191C105.852 19.0569 105.351 20.6015 105.369 22.5528H116.061Z" fill="#1C4586"/>
<path d="M6.57545 55.4989C5.50679 55.4989 4.71579 55.2445 4.20245 54.7359C3.69379 54.2225 3.43945 53.4315 3.43945 52.3629V49.1429C3.43945 48.0649 3.69379 47.2715 4.20245 46.7629C4.71112 46.2495 5.49745 45.9975 6.56145 46.0069H8.25545C9.13279 46.0069 9.80245 46.1889 10.2645 46.5529C10.7265 46.9122 10.9948 47.4815 11.0695 48.2609C11.0975 48.4569 11.0601 48.6062 10.9575 48.7089C10.8548 48.8115 10.7055 48.8629 10.5095 48.8629C10.1548 48.8629 9.94945 48.6669 9.89345 48.2749C9.84679 47.8455 9.69745 47.5562 9.44545 47.4069C9.19812 47.2575 8.80145 47.1829 8.25545 47.1829H6.56145C6.06679 47.1782 5.67712 47.2342 5.39245 47.3509C5.11245 47.4675 4.91179 47.6705 4.79045 47.9599C4.67379 48.2445 4.61545 48.6389 4.61545 49.1429V52.3629C4.61545 52.8622 4.67379 53.2542 4.79045 53.5389C4.91179 53.8235 5.11479 54.0265 5.39945 54.1479C5.68412 54.2645 6.07612 54.3229 6.57545 54.3229H8.25545C8.80145 54.3229 9.19812 54.2482 9.44545 54.0989C9.69745 53.9449 9.84679 53.6555 9.89345 53.2309C9.94945 52.8389 10.1548 52.6429 10.5095 52.6429C10.7055 52.6429 10.8548 52.6942 10.9575 52.7969C11.0601 52.8995 11.0975 53.0489 11.0695 53.2449C10.9948 54.0289 10.7265 54.6005 10.2645 54.9599C9.80245 55.3192 9.13279 55.4989 8.25545 55.4989H6.57545Z" fill="#00BEAC"/>
<path d="M16.0291 55.4989C15.6371 55.4989 15.4411 55.3029 15.4411 54.9109V52.0549L12.2351 46.9449C12.0391 46.6089 12.0997 46.3335 12.4171 46.1189C12.7531 45.9135 13.0237 45.9742 13.2291 46.3009L16.0291 50.7949L18.9691 46.3009C19.0671 46.1469 19.1861 46.0559 19.3261 46.0279C19.4661 45.9952 19.6131 46.0349 19.7671 46.1469C20.1077 46.3569 20.1684 46.6229 19.9491 46.9449L16.6171 52.0549V54.9109C16.6171 55.3029 16.4211 55.4989 16.0291 55.4989Z" fill="#00BEAC"/>
<path d="M22.4513 55.4989C22.0593 55.4989 21.8633 55.3029 21.8633 54.9109V46.5949C21.8633 46.2029 22.0593 46.0069 22.4513 46.0069H26.1053C26.8473 46.0069 27.4167 46.2029 27.8133 46.5949C28.2147 46.9869 28.4153 47.5469 28.4153 48.2749V48.6529C28.4153 49.2829 28.217 49.7705 27.8203 50.1159C28.5623 50.5312 28.9333 51.2895 28.9333 52.3909V52.8669C28.9333 53.7255 28.7047 54.3789 28.2473 54.8269C27.7947 55.2749 27.1413 55.4989 26.2873 55.4989H22.4513ZM23.0393 54.3229H26.2873C26.8147 54.3229 27.1903 54.2109 27.4143 53.9869C27.643 53.7582 27.7573 53.3849 27.7573 52.8669V52.3909C27.7573 51.8729 27.6477 51.5042 27.4283 51.2849C27.209 51.0609 26.8287 50.9489 26.2873 50.9489H23.0393V54.3229ZM23.0393 49.7729H26.3573C26.698 49.7729 26.929 49.6679 27.0503 49.4579C27.1763 49.2479 27.2393 48.9795 27.2393 48.6529V48.2749C27.2393 47.8689 27.1553 47.5865 26.9873 47.4279C26.8193 47.2645 26.5253 47.1829 26.1053 47.1829H23.0393V49.7729Z" fill="#00BEAC"/>
<path d="M31.8713 55.4989C31.4793 55.4989 31.2833 55.3029 31.2833 54.9109V46.5949C31.2833 46.2029 31.4793 46.0069 31.8713 46.0069H36.8973C37.2893 46.0069 37.4853 46.2029 37.4853 46.5949C37.4853 46.9869 37.2893 47.1829 36.8973 47.1829H32.4593V50.1229H35.2453C35.6373 50.1229 35.8333 50.3189 35.8333 50.7109C35.8333 51.1029 35.6373 51.2989 35.2453 51.2989H32.4593V54.3229H36.8973C37.2893 54.3229 37.4853 54.5189 37.4853 54.9109C37.4853 55.3029 37.2893 55.4989 36.8973 55.4989H31.8713Z" fill="#00BEAC"/>
<path d="M45.8228 55.5269C45.6688 55.6249 45.5218 55.6552 45.3818 55.6179C45.2418 55.5805 45.1228 55.4849 45.0248 55.3309L42.8548 51.7189H40.8948V54.9109C40.8948 55.3029 40.6988 55.4989 40.3068 55.4989C39.9148 55.4989 39.7188 55.3029 39.7188 54.9109V46.5949C39.7188 46.2029 39.9148 46.0069 40.3068 46.0069H43.5828C44.4368 46.0069 45.0901 46.2355 45.5428 46.6929C46.0001 47.1455 46.2288 47.7989 46.2288 48.6529V49.0729C46.2288 49.8149 46.0561 50.4075 45.7108 50.8509C45.3655 51.2895 44.8661 51.5625 44.2128 51.6699L46.0468 54.7289C46.2241 55.0555 46.1495 55.3215 45.8228 55.5269ZM40.8948 50.5429H43.5828C44.1148 50.5429 44.4928 50.4309 44.7168 50.2069C44.9408 49.9829 45.0528 49.6049 45.0528 49.0729V48.6529C45.0528 48.1255 44.9408 47.7499 44.7168 47.5259C44.4928 47.2972 44.1148 47.1829 43.5828 47.1829H40.8948V50.5429Z" fill="#00BEAC"/>
<path d="M55.2442 55.4989C54.4462 55.4989 53.8232 55.3379 53.3752 55.0159C52.9318 54.6939 52.6542 54.1969 52.5422 53.5249C52.5235 53.3195 52.5655 53.1655 52.6682 53.0629C52.7708 52.9602 52.9202 52.9089 53.1162 52.9089C53.3122 52.9089 53.4545 52.9555 53.5432 53.0489C53.6365 53.1422 53.6995 53.2869 53.7322 53.4829C53.8022 53.8049 53.9515 54.0265 54.1802 54.1479C54.4135 54.2645 54.7682 54.3229 55.2442 54.3229H57.2602C57.8622 54.3229 58.2705 54.2155 58.4852 54.0009C58.7045 53.7815 58.8142 53.3755 58.8142 52.7829C58.8142 52.1809 58.7022 51.7702 58.4782 51.5509C58.2542 51.3269 57.8482 51.2149 57.2602 51.2149H55.5242C54.6422 51.2149 53.9865 51.0002 53.5572 50.5709C53.1325 50.1369 52.9202 49.4789 52.9202 48.5969C52.9202 47.7195 53.1302 47.0685 53.5502 46.6439C53.9748 46.2192 54.6282 46.0069 55.5102 46.0069H57.1762C57.9182 46.0069 58.4992 46.1585 58.9192 46.4619C59.3438 46.7652 59.6122 47.2295 59.7242 47.8549C59.7522 48.0555 59.7148 48.2095 59.6122 48.3169C59.5095 48.4195 59.3555 48.4709 59.1502 48.4709C58.9635 48.4709 58.8235 48.4219 58.7302 48.3239C58.6368 48.2259 58.5762 48.0835 58.5482 47.8969C58.4735 47.6215 58.3312 47.4349 58.1212 47.3369C57.9112 47.2342 57.5962 47.1829 57.1762 47.1829H55.5102C54.9502 47.1829 54.5745 47.2832 54.3832 47.4839C54.1918 47.6799 54.0962 48.0509 54.0962 48.5969C54.0962 49.1475 54.1942 49.5255 54.3902 49.7309C54.5862 49.9362 54.9642 50.0389 55.5242 50.0389H57.2602C58.1795 50.0389 58.8632 50.2629 59.3112 50.7109C59.7638 51.1589 59.9902 51.8495 59.9902 52.7829C59.9902 53.7115 59.7662 54.3975 59.3182 54.8409C58.8702 55.2795 58.1842 55.4989 57.2602 55.4989H55.2442Z" fill="#00BEAC"/>
<path d="M63.1525 55.4989C62.7605 55.4989 62.5645 55.3029 62.5645 54.9109V46.5949C62.5645 46.2029 62.7605 46.0069 63.1525 46.0069H68.1785C68.5705 46.0069 68.7665 46.2029 68.7665 46.5949C68.7665 46.9869 68.5705 47.1829 68.1785 47.1829H63.7405V50.1229H66.5265C66.9185 50.1229 67.1145 50.3189 67.1145 50.7109C67.1145 51.1029 66.9185 51.2989 66.5265 51.2989H63.7405V54.3229H68.1785C68.5705 54.3229 68.7665 54.5189 68.7665 54.9109C68.7665 55.3029 68.5705 55.4989 68.1785 55.4989H63.1525Z" fill="#00BEAC"/>
<path d="M73.5266 55.4989C72.458 55.4989 71.667 55.2445 71.1536 54.7359C70.645 54.2225 70.3906 53.4315 70.3906 52.3629V49.1429C70.3906 48.0649 70.645 47.2715 71.1536 46.7629C71.6623 46.2495 72.4486 45.9975 73.5126 46.0069H75.2066C76.084 46.0069 76.7536 46.1889 77.2156 46.5529C77.6776 46.9122 77.946 47.4815 78.0206 48.2609C78.0486 48.4569 78.0113 48.6062 77.9086 48.7089C77.806 48.8115 77.6566 48.8629 77.4606 48.8629C77.106 48.8629 76.9006 48.6669 76.8446 48.2749C76.798 47.8455 76.6486 47.5562 76.3966 47.4069C76.1493 47.2575 75.7526 47.1829 75.2066 47.1829H73.5126C73.018 47.1782 72.6283 47.2342 72.3436 47.3509C72.0636 47.4675 71.863 47.6705 71.7416 47.9599C71.625 48.2445 71.5666 48.6389 71.5666 49.1429V52.3629C71.5666 52.8622 71.625 53.2542 71.7416 53.5389C71.863 53.8235 72.066 54.0265 72.3506 54.1479C72.6353 54.2645 73.0273 54.3229 73.5266 54.3229H75.2066C75.7526 54.3229 76.1493 54.2482 76.3966 54.0989C76.6486 53.9449 76.798 53.6555 76.8446 53.2309C76.9006 52.8389 77.106 52.6429 77.4606 52.6429C77.6566 52.6429 77.806 52.6942 77.9086 52.7969C78.0113 52.8995 78.0486 53.0489 78.0206 53.2449C77.946 54.0289 77.6776 54.6005 77.2156 54.9599C76.7536 55.3192 76.084 55.4989 75.2066 55.4989H73.5266Z" fill="#00BEAC"/>
<path d="M83.5407 55.4989C82.472 55.4989 81.681 55.2445 81.1677 54.7359C80.659 54.2225 80.4047 53.4315 80.4047 52.3629V46.5949C80.4047 46.3989 80.4537 46.2519 80.5517 46.1539C80.6497 46.0559 80.7967 46.0069 80.9927 46.0069C81.1887 46.0069 81.3357 46.0559 81.4337 46.1539C81.5317 46.2519 81.5807 46.3989 81.5807 46.5949V52.3629C81.5807 52.8622 81.639 53.2542 81.7557 53.5389C81.877 53.8235 82.08 54.0265 82.3647 54.1479C82.6493 54.2645 83.0413 54.3229 83.5407 54.3229H85.2207C85.72 54.3229 86.112 54.2645 86.3967 54.1479C86.6813 54.0265 86.882 53.8235 86.9987 53.5389C87.12 53.2542 87.1807 52.8622 87.1807 52.3629V46.5949C87.1807 46.3989 87.2297 46.2519 87.3277 46.1539C87.4257 46.0559 87.5727 46.0069 87.7687 46.0069C87.9647 46.0069 88.1117 46.0559 88.2097 46.1539C88.3077 46.2519 88.3567 46.3989 88.3567 46.5949V52.3629C88.3567 53.4315 88.1023 54.2225 87.5937 54.7359C87.085 55.2445 86.294 55.4989 85.2207 55.4989H83.5407Z" fill="#00BEAC"/>
<path d="M97.2974 55.5269C97.1434 55.6249 96.9964 55.6552 96.8564 55.6179C96.7164 55.5805 96.5974 55.4849 96.4994 55.3309L94.3294 51.7189H92.3694V54.9109C92.3694 55.3029 92.1734 55.4989 91.7814 55.4989C91.3894 55.4989 91.1934 55.3029 91.1934 54.9109V46.5949C91.1934 46.2029 91.3894 46.0069 91.7814 46.0069H95.0574C95.9114 46.0069 96.5648 46.2355 97.0174 46.6929C97.4748 47.1455 97.7034 47.7989 97.7034 48.6529V49.0729C97.7034 49.8149 97.5308 50.4075 97.1854 50.8509C96.8401 51.2895 96.3407 51.5625 95.6874 51.6699L97.5214 54.7289C97.6988 55.0555 97.6241 55.3215 97.2974 55.5269ZM92.3694 50.5429H95.0574C95.5894 50.5429 95.9674 50.4309 96.1914 50.2069C96.4154 49.9829 96.5274 49.6049 96.5274 49.0729V48.6529C96.5274 48.1255 96.4154 47.7499 96.1914 47.5259C95.9674 47.2972 95.5894 47.1829 95.0574 47.1829H92.3694V50.5429Z" fill="#00BEAC"/>
<path d="M100.531 55.4989C100.331 55.4989 100.181 55.4522 100.083 55.3589C99.9901 55.2609 99.9434 55.1115 99.9434 54.9109V46.6089C99.9434 46.4035 99.9901 46.2542 100.083 46.1609C100.181 46.0675 100.331 46.0209 100.531 46.0209C100.737 46.0209 100.886 46.0675 100.979 46.1609C101.073 46.2542 101.119 46.4035 101.119 46.6089V54.9109C101.119 55.1115 101.073 55.2609 100.979 55.3589C100.886 55.4522 100.737 55.4989 100.531 55.4989Z" fill="#00BEAC"/>
<path d="M106.873 55.4989C106.677 55.4989 106.53 55.4499 106.432 55.3519C106.334 55.2539 106.285 55.1069 106.285 54.9109V47.1969H103.569C103.373 47.1969 103.226 47.1479 103.128 47.0499C103.03 46.9519 102.981 46.8049 102.981 46.6089C102.981 46.4129 103.03 46.2659 103.128 46.1679C103.226 46.0699 103.373 46.0209 103.569 46.0209H110.177C110.373 46.0209 110.52 46.0699 110.618 46.1679C110.716 46.2659 110.765 46.4129 110.765 46.6089C110.765 46.8049 110.716 46.9519 110.618 47.0499C110.52 47.1479 110.373 47.1969 110.177 47.1969H107.461V54.9109C107.461 55.0975 107.41 55.2422 107.307 55.3449C107.209 55.4475 107.065 55.4989 106.873 55.4989Z" fill="#00BEAC"/>
<path d="M115.683 55.4989C115.291 55.4989 115.095 55.3029 115.095 54.9109V52.0549L111.889 46.9449C111.693 46.6089 111.754 46.3335 112.071 46.1189C112.407 45.9135 112.678 45.9742 112.883 46.3009L115.683 50.7949L118.623 46.3009C118.721 46.1469 118.84 46.0559 118.98 46.0279C119.12 45.9952 119.267 46.0349 119.421 46.1469C119.762 46.3569 119.823 46.6229 119.603 46.9449L116.271 52.0549V54.9109C116.271 55.3029 116.075 55.4989 115.683 55.4989Z" fill="#00BEAC"/>
</svg>
