<svg width="25" height="29" viewBox="0 0 25 29" fill="none" xmlns="http://www.w3.org/2000/svg">
<path d="M24.7751 13.0337C24.5282 10.2736 23.4851 7.64455 21.7725 5.46593C20.0599 3.28731 17.7515 1.65286 15.1278 0.761109C12.504 -0.130644 9.67776 -0.241328 6.9923 0.4425C4.30683 1.12633 1.87772 2.57524 0 4.61326L2.29736 8.59112C3.45269 6.92903 5.08445 5.65595 6.97765 4.93961C8.87084 4.22327 10.9366 4.0973 12.9028 4.57828C14.8691 5.05927 16.6434 6.12464 17.9921 7.63403C19.3409 9.14342 20.2007 11.026 20.4583 13.0337C20.5117 13.456 20.5385 13.8813 20.5385 14.307C20.5392 15.0111 20.4653 15.7133 20.3181 16.4019H6.04885C6.17607 17.0942 6.46318 17.7471 6.8873 18.3088C7.37064 18.953 8.01568 19.4579 8.75705 19.7725C9.6929 20.1672 10.7339 20.2375 11.7143 19.9722C12.6947 19.707 13.5582 19.1215 14.1675 18.3088H19.7109C18.9884 19.9655 17.8312 21.3959 16.3618 22.4484C14.8925 23.5009 13.1657 24.1362 11.3646 24.287L13.6584 28.2672C16.1542 27.7048 18.4539 26.4843 20.3186 24.7327C22.1834 22.9811 23.5451 20.7622 24.2625 18.3064C24.6036 17.1349 24.7924 15.9244 24.8242 14.7046V13.9045C24.817 13.6131 24.8007 13.3228 24.7751 13.0337Z" fill="#1D2256"/>
<path d="M15.0717 12.8434H5.97449C5.95231 12.2322 6.05354 11.6228 6.27214 11.0515C6.49074 10.4803 6.82222 9.959 7.24679 9.51875C7.67135 9.07849 8.1803 8.72832 8.74321 8.48915C9.30613 8.24998 9.91148 8.12671 10.5231 8.12671C11.1347 8.12671 11.7401 8.24998 12.303 8.48915C12.8659 8.72832 13.3749 9.07849 13.7994 9.51875C14.224 9.959 14.5555 10.4803 14.7741 11.0515C14.9927 11.6228 15.0939 12.2322 15.0717 12.8434V12.8434Z" fill="#73C2B9"/>
</svg>
